<svg width="12" height="12" viewBox="0 0 12 12" fill="none" xmlns="http://www.w3.org/2000/svg">
<circle cx="6" cy="6" r="6" fill="#D5D5D5"/>
<path d="M6.00002 7.66667C6.80544 7.66667 7.45836 7.01375 7.45836 6.20834C7.45836 5.40292 6.80544 4.75 6.00002 4.75C5.19461 4.75 4.54169 5.40292 4.54169 6.20834C4.54169 7.01375 5.19461 7.66667 6.00002 7.66667Z" fill="#101011"/>
<path d="M8.91665 3.875H7.99167C7.87475 3.875 7.76495 3.82943 7.6822 3.74682L7.149 3.21362C7.01129 3.07591 6.82814 3 6.63331 3H5.36667C5.17185 3 4.9887 3.07591 4.85098 3.21362L4.31778 3.74682C4.23504 3.82943 4.12524 3.875 4.00832 3.875H3.08334C2.76161 3.875 2.5 4.13661 2.5 4.45832V8.24998C2.5 8.57169 2.76161 8.83331 3.08334 8.83331H8.91666C9.23838 8.83331 9.5 8.5717 9.5 8.24998V4.45832C9.49999 4.13661 9.23838 3.875 8.91665 3.875ZM5.99999 7.95832C5.03499 7.95832 4.25 7.17332 4.25 6.20832C4.25 5.24332 5.03499 4.45832 5.99999 4.45832C6.96499 4.45832 7.74999 5.24332 7.74999 6.20832C7.74999 7.17332 6.96499 7.95832 5.99999 7.95832ZM8.33333 5.33332C8.17255 5.33332 8.04167 5.20244 8.04167 5.04166C8.04167 4.88088 8.17255 4.75 8.33333 4.75C8.49411 4.75 8.62499 4.88088 8.62499 5.04166C8.62499 5.20244 8.49411 5.33332 8.33333 5.33332Z" fill="#101011"/>
</svg>
